<svg width="18" height="19" viewBox="0 0 18 19" fill="none" xmlns="http://www.w3.org/2000/svg">
<path d="M7.18302 10.7091C6.80672 10.7091 6.50166 11.0141 6.50166 11.3904C6.50166 11.7667 6.80672 12.0718 7.18302 12.0718H10.8169C11.1932 12.0718 11.4983 11.7667 11.4983 11.3904C11.4983 11.0141 11.1932 10.7091 10.8169 10.7091H7.18302Z" fill="white"/>
<path fill-rule="evenodd" clip-rule="evenodd" d="M11.4207 0.78778C11.7573 0.619493 12.1665 0.755917 12.3348 1.09249L13.9821 4.38716C14.3706 4.40691 14.7247 4.43708 15.0457 4.48316C16.0048 4.62087 16.7986 4.91692 17.3628 5.61476C17.9269 6.3126 18.0501 7.15082 17.9838 8.11748C17.9195 9.05427 17.6663 10.2356 17.3498 11.7125L16.9397 13.6264C16.7263 14.6225 16.5532 15.4305 16.3353 16.0617C16.1082 16.7195 15.809 17.2604 15.2978 17.6737C14.7867 18.0869 14.195 18.2662 13.5042 18.3503C12.8414 18.4311 12.015 18.4311 10.9963 18.4311H7.00366C5.98497 18.4311 5.15862 18.4311 4.49577 18.3503C3.80498 18.2662 3.21334 18.0869 2.70219 17.6737C2.19105 17.2604 1.89176 16.7195 1.66471 16.0617C1.44684 15.4305 1.27371 14.6224 1.06027 13.6264L0.650165 11.7125C0.333674 10.2356 0.0805074 9.05428 0.0162489 8.11748C-0.0500581 7.15082 0.0730882 6.3126 0.637235 5.61476C1.20138 4.91692 1.99519 4.62087 2.95429 4.48316C3.27523 4.43708 3.62941 4.40691 4.01779 4.38716L5.66512 1.09249C5.83341 0.755917 6.24268 0.619493 6.57926 0.78778C6.91583 0.956068 7.05226 1.36534 6.88397 1.70191L5.55912 4.35162C5.8894 4.34973 6.23703 4.34974 6.60234 4.34974H11.3977C11.7629 4.34974 12.1106 4.34973 12.4408 4.35162L11.116 1.70191C10.9477 1.36534 11.0841 0.956068 11.4207 0.78778ZM3.30576 5.81122L2.9397 6.54334C2.77141 6.87991 2.90784 7.28918 3.24441 7.45747C3.58099 7.62576 3.99026 7.48934 4.15855 7.15276L4.87374 5.72237C5.39194 5.71276 5.98194 5.71246 6.65788 5.71246H11.3421C12.018 5.71246 12.608 5.71276 13.1262 5.72236L13.8414 7.15276C14.0097 7.48934 14.419 7.62576 14.7555 7.45747C15.0921 7.28918 15.2285 6.87991 15.0602 6.54334L14.6942 5.81121C14.748 5.81772 14.8006 5.82465 14.852 5.83204C15.655 5.94733 16.0491 6.1573 16.303 6.47146C16.5527 6.78034 16.6756 7.20047 16.6269 7.98364H1.37311C1.32442 7.20047 1.44727 6.78034 1.69697 6.47146C1.95095 6.1573 2.34497 5.94733 3.14796 5.83204C3.19941 5.82465 3.252 5.81772 3.30576 5.81122ZM1.99427 11.4813C1.8153 10.6461 1.66557 9.94506 1.55683 9.34635H16.4432C16.3344 9.94506 16.1847 10.6461 16.0057 11.4813L15.6164 13.2982C15.3916 14.3471 15.2348 15.0735 15.0472 15.6171C14.8656 16.143 14.6795 16.4212 14.4411 16.6139C14.2027 16.8067 13.8917 16.9303 13.3394 16.9976C12.7686 17.0672 12.0255 17.0684 10.9528 17.0684H7.04723C5.97454 17.0684 5.23143 17.0672 4.66061 16.9976C4.10829 16.9303 3.79731 16.8067 3.5589 16.6139C3.32048 16.4212 3.13439 16.143 2.95285 15.6171C2.76523 15.0735 2.60837 14.3471 2.38361 13.2982L1.99427 11.4813Z" fill="white"/>
</svg>
