<svg width="20" height="21" viewBox="0 0 20 21" fill="none" xmlns="http://www.w3.org/2000/svg">
<path fill-rule="evenodd" clip-rule="evenodd" d="M1.0044 0.621145C0.604666 0.487901 0.172602 0.703933 0.0393581 1.10367C-0.0938862 1.5034 0.122145 1.93546 0.521878 2.06871L0.791357 2.15853C1.47943 2.38789 1.93434 2.54074 2.26947 2.69664C2.58681 2.84427 2.72401 2.96308 2.81192 3.08505C2.89983 3.20702 2.96915 3.37475 3.00885 3.72249C3.05078 4.08972 3.05193 4.56962 3.05193 5.29491L3.05193 8.01282C3.05191 9.40399 3.05189 10.5253 3.17046 11.4072C3.29357 12.3229 3.55693 13.0938 4.16922 13.7061C4.78152 14.3184 5.55246 14.5817 6.46808 14.7048C7.35 14.8234 8.47131 14.8234 9.86247 14.8234H18.0563C18.4776 14.8234 18.8192 14.4818 18.8192 14.0604C18.8192 13.6391 18.4776 13.2975 18.0563 13.2975H9.91832C8.45815 13.2975 7.43978 13.2959 6.6714 13.1926C5.92498 13.0922 5.5297 12.9087 5.24817 12.6271C5.1498 12.5288 5.0634 12.4165 4.98833 12.2803H15.064C15.5201 12.2803 15.9213 12.2803 16.2543 12.2444C16.6149 12.2054 16.9642 12.119 17.2928 11.9023C17.6215 11.6856 17.8386 11.3985 18.0163 11.0825C18.1806 10.7905 18.3386 10.4218 18.5182 10.0026L18.9931 8.89454C19.3842 7.98208 19.7114 7.21869 19.8752 6.59781C20.0461 5.95009 20.0906 5.27382 19.6875 4.66255C19.2844 4.05129 18.6453 3.82578 17.9826 3.72768C17.3474 3.63365 16.5169 3.63368 15.5241 3.63372L4.53381 3.63372C4.53101 3.60525 4.52804 3.57714 4.52487 3.54941C4.46856 3.05623 4.34588 2.6037 4.04976 2.19286C3.75365 1.78203 3.36314 1.52253 2.91307 1.31316C2.48966 1.11619 1.95121 0.936723 1.31404 0.724357L1.0044 0.621145ZM4.5778 5.15958C4.5778 5.19035 4.5778 5.22134 4.5778 5.25255L4.5778 7.957C4.5778 9.14919 4.57888 10.0469 4.6355 10.7544H15.0267C15.5312 10.7544 15.8491 10.7534 16.0905 10.7273C16.3135 10.7032 16.3993 10.6637 16.4528 10.6284C16.5064 10.5931 16.5765 10.5299 16.6865 10.3344C16.8055 10.1227 16.9317 9.83087 17.1304 9.36722L17.5664 8.34998C17.9881 7.3661 18.2683 6.70713 18.3998 6.20861C18.5276 5.72417 18.4628 5.57715 18.4136 5.50253C18.3644 5.4279 18.2548 5.31046 17.7592 5.23709C17.2492 5.16159 16.5331 5.15958 15.4627 5.15958H4.5778Z" fill="white"/>
<path fill-rule="evenodd" clip-rule="evenodd" d="M4.06917 18.1294C4.06917 19.3935 5.0939 20.4182 6.35797 20.4182C7.62204 20.4182 8.64676 19.3935 8.64676 18.1294C8.64676 16.8654 7.62204 15.8406 6.35797 15.8406C5.0939 15.8406 4.06917 16.8654 4.06917 18.1294ZM6.35797 18.8923C5.93661 18.8923 5.59504 18.5508 5.59504 18.1294C5.59504 17.7081 5.93661 17.3665 6.35797 17.3665C6.77933 17.3665 7.1209 17.7081 7.1209 18.1294C7.1209 18.5508 6.77933 18.8923 6.35797 18.8923Z" fill="white"/>
<path fill-rule="evenodd" clip-rule="evenodd" d="M15.5131 20.4183C14.2491 20.4183 13.2244 19.3936 13.2244 18.1295C13.2244 16.8654 14.2491 15.8407 15.5131 15.8407C16.7772 15.8407 17.8019 16.8654 17.8019 18.1295C17.8019 19.3936 16.7772 20.4183 15.5131 20.4183ZM14.7502 18.1295C14.7502 18.5508 15.0918 18.8924 15.5131 18.8924C15.9345 18.8924 16.2761 18.5508 16.2761 18.1295C16.2761 17.7081 15.9345 17.3666 15.5131 17.3666C15.0918 17.3666 14.7502 17.7081 14.7502 18.1295Z" fill="white"/>
</svg>
