<svg width="22" height="22" viewBox="0 0 22 22" fill="none" xmlns="http://www.w3.org/2000/svg">
<path fill-rule="evenodd" clip-rule="evenodd" d="M10.6926 2.1154e-07L12.25 4.49958e-07C12.6642 4.49958e-07 13 0.335787 13 0.75C13 1.16421 12.6642 1.5 12.25 1.5H10.75C8.37178 1.5 6.66356 1.50159 5.36358 1.67637C4.08517 1.84825 3.31445 2.17514 2.7448 2.7448C2.17514 3.31445 1.84825 4.08517 1.67637 5.36358C1.50159 6.66356 1.5 8.37178 1.5 10.75C1.5 13.1282 1.50159 14.8364 1.67637 16.1364C1.84825 17.4148 2.17514 18.1855 2.7448 18.7552C3.31445 19.3249 4.08517 19.6518 5.36358 19.8236C6.66356 19.9984 8.37178 20 10.75 20C13.1282 20 14.8364 19.9984 16.1364 19.8236C17.4148 19.6518 18.1855 19.3249 18.7552 18.7552C19.3249 18.1855 19.6518 17.4148 19.8236 16.1364C19.9984 14.8364 20 13.1282 20 10.75V9.25C20 8.83579 20.3358 8.5 20.75 8.5C21.1642 8.5 21.5 8.83579 21.5 9.25V10.8074C21.5 13.1158 21.5 14.9248 21.3103 16.3363C21.116 17.781 20.7107 18.9211 19.8159 19.8159C18.9211 20.7107 17.781 21.116 16.3363 21.3103C14.9248 21.5 13.1158 21.5 10.8074 21.5H10.6926C8.38423 21.5 6.57519 21.5 5.16371 21.3103C3.71897 21.116 2.57895 20.7107 1.68414 19.8159C0.789327 18.9211 0.383986 17.781 0.189747 16.3363C-2.28584e-05 14.9248 -1.26631e-05 13.1158 2.1154e-07 10.8074V10.6926C-1.26631e-05 8.38423 -2.28584e-05 6.57519 0.189747 5.16371C0.383986 3.71897 0.789327 2.57895 1.68414 1.68414C2.57895 0.789327 3.71897 0.383986 5.16371 0.189747C6.57519 -2.28584e-05 8.38423 -1.26631e-05 10.6926 2.1154e-07ZM15.5205 1.02592C16.8884 -0.341971 19.1062 -0.341971 20.4741 1.02592C21.842 2.3938 21.842 4.61158 20.4741 5.97947L13.826 12.6276C13.4547 12.9989 13.2221 13.2315 12.9626 13.434C12.6569 13.6724 12.3261 13.8768 11.9761 14.0436C11.679 14.1852 11.3669 14.2892 10.8688 14.4552L7.96426 15.4234C7.42801 15.6021 6.8368 15.4626 6.43711 15.0629C6.03742 14.6632 5.89785 14.072 6.0766 13.5357L7.04477 10.6312C7.21079 10.1331 7.31479 9.82099 7.4564 9.52385C7.62319 9.17388 7.82761 8.84311 8.06605 8.53742C8.26849 8.27787 8.5011 8.04529 8.87245 7.674L15.5205 1.02592ZM19.4134 2.08658C18.6313 1.30448 17.3633 1.30448 16.5812 2.08658L16.2046 2.4632C16.2273 2.55906 16.259 2.67327 16.3032 2.80066C16.4465 3.21372 16.7177 3.75771 17.23 4.26999C17.7423 4.78227 18.2863 5.05346 18.6993 5.19677C18.8267 5.24097 18.9409 5.27273 19.0368 5.29543L19.4134 4.91881C20.1955 4.13671 20.1955 2.86867 19.4134 2.08658ZM17.8551 6.47709C17.3392 6.25519 16.7382 5.89946 16.1693 5.33065C15.6005 4.76185 15.2448 4.16082 15.0229 3.64486L9.96751 8.70026C9.55099 9.11677 9.38764 9.28195 9.24881 9.45995C9.07738 9.67974 8.9304 9.91755 8.81048 10.1692C8.71337 10.373 8.63868 10.5929 8.4524 11.1517L8.02051 12.4474L9.05257 13.4795L10.3483 13.0476C10.9071 12.8613 11.127 12.7866 11.3308 12.6895C11.5824 12.5696 11.8203 12.4226 12.0401 12.2512C12.218 12.1124 12.3832 11.949 12.7997 11.5325L17.8551 6.47709Z" fill="#1F1F1F"/>
</svg>
