<svg width="24" height="25" viewBox="0 0 24 25" fill="none" xmlns="http://www.w3.org/2000/svg">
<path d="M8.65116 18.3605C8.18879 18.3605 7.81395 18.7353 7.81395 19.1977C7.81395 19.6601 8.18879 20.0349 8.65116 20.0349H15.3488C15.8112 20.0349 16.186 19.6601 16.186 19.1977C16.186 18.7353 15.8112 18.3605 15.3488 18.3605H8.65116Z" fill="#010101"/>
<path fill-rule="evenodd" clip-rule="evenodd" d="M12 0.5C11.2095 0.5 10.4914 0.726403 9.71225 1.10529C8.95909 1.47155 8.08903 2.01154 7.00226 2.68603L4.69539 4.11775C3.66707 4.75594 2.84366 5.26696 2.209 5.753C1.55179 6.25631 1.04701 6.7689 0.682393 7.43503C0.318535 8.09977 0.15468 8.80706 0.076119 9.64311C-1.59269e-05 10.4534 -8.67433e-06 11.4441 2.98283e-07 12.6867V14.4868C-1.53279e-05 16.6121 -2.76288e-05 18.2897 0.17046 19.6013C0.345346 20.9468 0.712814 22.0331 1.5431 22.8919C2.37721 23.7547 3.43865 24.1402 4.75268 24.3229C6.02622 24.5 7.65272 24.5 9.70253 24.5H14.2974C16.3472 24.5 17.9738 24.5 19.2473 24.3229C20.5613 24.1402 21.6228 23.7547 22.4569 22.8919C23.2872 22.0331 23.6547 20.9468 23.8295 19.6013C24 18.2897 24 16.6121 24 14.4868V12.6867C24 11.4442 24 10.4533 23.9239 9.64311C23.8453 8.80706 23.6815 8.09977 23.3176 7.43503C22.953 6.7689 22.4482 6.25631 21.791 5.753C21.1563 5.26696 20.333 4.75595 19.3046 4.11776L16.9977 2.68603C15.911 2.01154 15.0409 1.47155 14.2878 1.10529C13.5086 0.726403 12.7905 0.5 12 0.5ZM7.84691 4.1325C8.98079 3.42879 9.77805 2.9352 10.4445 2.6111C11.0938 2.29534 11.5537 2.17442 12 2.17442C12.4463 2.17442 12.9062 2.29534 13.5555 2.6111C14.222 2.9352 15.0192 3.42879 16.1531 4.1325L18.3856 5.51809C19.4582 6.18375 20.2112 6.6522 20.7729 7.08236C21.3195 7.50091 21.6339 7.8463 21.8488 8.239C22.0645 8.63309 22.1905 9.09384 22.2568 9.79976C22.3247 10.5226 22.3256 11.4349 22.3256 12.7276V14.4255C22.3256 16.6257 22.3239 18.1943 22.1691 19.3855C22.017 20.5554 21.7306 21.2342 21.2531 21.7281C20.7794 22.2181 20.1345 22.509 19.0167 22.6645C17.8718 22.8237 16.3619 22.8256 14.2326 22.8256H9.76744C7.63811 22.8256 6.12818 22.8237 4.98332 22.6645C3.86552 22.509 3.22062 22.2181 2.74693 21.7281C2.26941 21.2342 1.98298 20.5554 1.83091 19.3855C1.67608 18.1943 1.67442 16.6257 1.67442 14.4255V12.7276C1.67442 11.4349 1.67527 10.5226 1.74319 9.79976C1.80953 9.09384 1.93546 8.63309 2.15117 8.239C2.36613 7.8463 2.68055 7.50091 3.22707 7.08236C3.78876 6.6522 4.5418 6.18375 5.61436 5.51809L7.84691 4.1325Z" fill="#010101"/>
</svg>
