<svg width="24" height="25" viewBox="0 0 24 25" fill="none" xmlns="http://www.w3.org/2000/svg">
<path fill-rule="evenodd" clip-rule="evenodd" d="M0.62304 7.48729C0 8.62553 0 9.99859 0 12.7447V14.5699C0 19.251 0 21.5916 1.40589 23.0458C2.81178 24.5 5.07452 24.5 9.6 24.5H14.4C18.9255 24.5 21.1882 24.5 22.5941 23.0458C24 21.5916 24 19.251 24 14.5699V12.7447C24 9.99859 24 8.62553 23.377 7.48729C22.7539 6.34905 21.6157 5.64262 19.3392 4.22975L16.9392 2.74024C14.5327 1.24675 13.3295 0.5 12 0.5C10.6705 0.5 9.46726 1.24675 7.06084 2.74024L4.66084 4.22975C2.38433 5.64262 1.24608 6.34905 0.62304 7.48729ZM8.4 18.8C7.90294 18.8 7.5 19.2029 7.5 19.7C7.5 20.1971 7.90294 20.6 8.4 20.6H15.6C16.0971 20.6 16.5 20.1971 16.5 19.7C16.5 19.2029 16.0971 18.8 15.6 18.8H8.4Z" fill="#FFA400"/>
</svg>
