<svg width="20" height="21" viewBox="0 0 20 21" fill="none" xmlns="http://www.w3.org/2000/svg">
<path fill-rule="evenodd" clip-rule="evenodd" d="M20 10.5C20 4.97715 15.5228 0.5 10 0.5C4.47715 0.5 0 4.97715 0 10.5C0 16.0228 4.47715 20.5 10 20.5C15.5228 20.5 20 16.0228 20 10.5ZM10 4.75C10.4142 4.75 10.75 5.08579 10.75 5.5V11.5C10.75 11.9142 10.4142 12.25 10 12.25C9.58579 12.25 9.25 11.9142 9.25 11.5V5.5C9.25 5.08579 9.58579 4.75 10 4.75ZM10 15.5C10.5523 15.5 11 15.0523 11 14.5C11 13.9477 10.5523 13.5 10 13.5C9.44771 13.5 9 13.9477 9 14.5C9 15.0523 9.44771 15.5 10 15.5Z" fill="#FFE3B0"/>
</svg>
