<svg width="14" height="18" viewBox="0 0 14 18" fill="none" xmlns="http://www.w3.org/2000/svg">
<path fill-rule="evenodd" clip-rule="evenodd" d="M6.66667 0.666626C2.98477 0.666626 0 4.00211 0 7.74996C0 11.4684 2.12777 15.5103 5.44756 17.062C6.22145 17.4237 7.11188 17.4237 7.88578 17.062C11.2056 15.5103 13.3333 11.4684 13.3333 7.74996C13.3333 4.00211 10.3486 0.666626 6.66667 0.666626ZM6.66667 8.99996C7.58714 8.99996 8.33333 8.25377 8.33333 7.33329C8.33333 6.41282 7.58714 5.66663 6.66667 5.66663C5.74619 5.66663 5 6.41282 5 7.33329C5 8.25377 5.74619 8.99996 6.66667 8.99996Z" fill="#FFA400"/>
</svg>
