<svg width="24" height="15" viewBox="0 0 24 15" fill="none" xmlns="http://www.w3.org/2000/svg">
<path fill-rule="evenodd" clip-rule="evenodd" d="M0 1.71684C0 1.23774 0.388379 0.849365 0.86747 0.849365H10.1205C10.5996 0.849365 10.988 1.23774 10.988 1.71684C10.988 2.19593 10.5996 2.5843 10.1205 2.5843H0.86747C0.388379 2.5843 0 2.19593 0 1.71684ZM0 7.49997C0 7.02088 0.388379 6.6325 0.86747 6.6325H7.80723C8.28632 6.6325 8.6747 7.02088 8.6747 7.49997C8.6747 7.97906 8.28632 8.36744 7.80723 8.36744H0.86747C0.388379 8.36744 0 7.97906 0 7.49997ZM0 13.2831C0 12.804 0.388379 12.4156 0.86747 12.4156H10.1205C10.5996 12.4156 10.988 12.804 10.988 13.2831C10.988 13.7622 10.5996 14.1506 10.1205 14.1506H0.86747C0.388379 14.1506 0 13.7622 0 13.2831Z" fill="#FFA400"/>
<path fill-rule="evenodd" clip-rule="evenodd" d="M18.2169 13.2831C21.4108 13.2831 24 10.6939 24 7.49997C24 4.30603 21.4108 1.71684 18.2169 1.71684C15.0229 1.71684 12.4337 4.30603 12.4337 7.49997C12.4337 10.6939 15.0229 13.2831 18.2169 13.2831ZM19.0843 5.18671C19.0843 4.70762 18.696 4.31924 18.2169 4.31924C17.7378 4.31924 17.3494 4.70762 17.3494 5.18671V7.32202C17.3494 7.53073 17.4246 7.73244 17.5613 7.89016L18.718 9.22473C19.0317 9.58677 19.5796 9.6259 19.9416 9.31213C20.3037 8.99836 20.3428 8.4505 20.029 8.08846L19.0843 6.99843V5.18671Z" fill="#FFA400"/>
</svg>
