<svg width="24" height="13" viewBox="0 0 24 13" fill="none" xmlns="http://www.w3.org/2000/svg">
<path fill-rule="evenodd" clip-rule="evenodd" d="M0 0.91863C0 0.456252 0.374831 0.0814209 0.837209 0.0814209H9.76744C10.2298 0.0814209 10.6047 0.456252 10.6047 0.91863C10.6047 1.38101 10.2298 1.75584 9.76744 1.75584H0.837209C0.374831 1.75584 0 1.38101 0 0.91863ZM17.5814 1.75584C14.9613 1.75584 12.8372 3.87988 12.8372 6.50003C12.8372 9.12017 14.9613 11.2442 17.5814 11.2442C20.2015 11.2442 22.3256 9.12017 22.3256 6.50003C22.3256 3.87988 20.2015 1.75584 17.5814 1.75584ZM11.1628 6.50003C11.1628 2.95513 14.0365 0.0814209 17.5814 0.0814209C21.1263 0.0814209 24 2.95513 24 6.50003C24 10.0449 21.1263 12.9186 17.5814 12.9186C14.0365 12.9186 11.1628 10.0449 11.1628 6.50003ZM17.5814 3.43026C18.0438 3.43026 18.4186 3.80509 18.4186 4.26747V6.01598L19.3303 7.06799C19.6332 7.41741 19.5954 7.94615 19.246 8.24897C18.8966 8.5518 18.3678 8.51403 18.065 8.16462L16.9487 6.8766C16.8168 6.72439 16.7442 6.52972 16.7442 6.32829V4.26747C16.7442 3.80509 17.119 3.43026 17.5814 3.43026ZM0 6.50003C0 6.03765 0.374831 5.66282 0.837209 5.66282H7.53488C7.99726 5.66282 8.37209 6.03765 8.37209 6.50003C8.37209 6.9624 7.99726 7.33724 7.53488 7.33724H0.837209C0.374831 7.33724 0 6.9624 0 6.50003ZM0 12.0814C0 11.619 0.374831 11.2442 0.837209 11.2442H9.76744C10.2298 11.2442 10.6047 11.619 10.6047 12.0814C10.6047 12.5438 10.2298 12.9186 9.76744 12.9186H0.837209C0.374831 12.9186 0 12.5438 0 12.0814Z" fill="#1C274C"/>
</svg>
