<svg width="22" height="22" viewBox="0 0 22 22" fill="none" xmlns="http://www.w3.org/2000/svg">
<path d="M12 7.75C12 7.33579 11.6642 7 11.25 7C10.8358 7 10.5 7.33579 10.5 7.75L10.5 10H8.25C7.83579 10 7.5 10.3358 7.5 10.75C7.5 11.1642 7.83579 11.5 8.25 11.5H10.5V13.75C10.5 14.1642 10.8358 14.5 11.25 14.5C11.6642 14.5 12 14.1642 12 13.75L12 11.5H14.25C14.6642 11.5 15 11.1642 15 10.75C15 10.3358 14.6642 10 14.25 10H12V7.75Z" fill="white"/>
<path fill-rule="evenodd" clip-rule="evenodd" d="M11.25 0C5.31294 0 0.5 4.81294 0.5 10.75C0.5 16.6871 5.31294 21.5 11.25 21.5C17.1871 21.5 22 16.6871 22 10.75C22 4.81294 17.1871 0 11.25 0ZM2 10.75C2 5.64137 6.14137 1.5 11.25 1.5C16.3586 1.5 20.5 5.64137 20.5 10.75C20.5 15.8586 16.3586 20 11.25 20C6.14137 20 2 15.8586 2 10.75Z" fill="white"/>
</svg>
