<svg width="20" height="22" viewBox="0 0 20 22" fill="none" xmlns="http://www.w3.org/2000/svg">
<path fill-rule="evenodd" clip-rule="evenodd" d="M6.70063 7H12.7994C13.4642 6.99997 14.0371 6.99993 14.4958 7.06161C14.9875 7.12771 15.4587 7.27677 15.841 7.65901C16.2232 8.04126 16.3723 8.51252 16.4384 9.00416C16.5001 9.4629 16.5 10.0357 16.5 10.7006V14.7994C16.5 15.4642 16.5001 16.0371 16.4384 16.4958C16.3723 16.9875 16.2232 17.4587 15.841 17.841C15.4587 18.2232 14.9875 18.3723 14.4958 18.4384C14.0371 18.5001 13.4643 18.5 12.7995 18.5H6.70064C6.03581 18.5 5.46288 18.5001 5.00416 18.4384C4.51252 18.3723 4.04126 18.2232 3.65901 17.841C3.27677 17.4587 3.12771 16.9875 3.06161 16.4958C2.99993 16.0371 2.99996 15.4642 3 14.7994V10.7006C2.99996 10.0358 2.99993 9.4629 3.06161 9.00416C3.12771 8.51252 3.27677 8.04126 3.65901 7.65901C4.04126 7.27677 4.51252 7.12771 5.00416 7.06161C5.4629 6.99993 6.03577 6.99997 6.70063 7ZM5.20403 8.54823C4.87873 8.59197 4.77677 8.66258 4.71967 8.71967C4.66258 8.77677 4.59197 8.87873 4.54823 9.20403C4.5016 9.55091 4.5 10.0217 4.5 10.75V14.75C4.5 15.4783 4.5016 15.9491 4.54823 16.296C4.59197 16.6213 4.66258 16.7232 4.71967 16.7803C4.77677 16.8374 4.87873 16.908 5.20403 16.9518C5.55091 16.9984 6.02169 17 6.75 17H12.75C13.4783 17 13.9491 16.9984 14.296 16.9518C14.6213 16.908 14.7232 16.8374 14.7803 16.7803C14.8374 16.7232 14.908 16.6213 14.9518 16.296C14.9984 15.9491 15 15.4783 15 14.75V10.75C15 10.0217 14.9984 9.55091 14.9518 9.20403C14.908 8.87873 14.8374 8.77677 14.7803 8.71967C14.7232 8.66258 14.6213 8.59197 14.296 8.54823C13.9491 8.5016 13.4783 8.5 12.75 8.5H6.75C6.02169 8.5 5.55091 8.5016 5.20403 8.54823Z" fill="#1F1F1F"/>
<path d="M4.75 4C4.33579 4 4 4.33579 4 4.75C4 5.16421 4.33579 5.5 4.75 5.5H9.75C10.1642 5.5 10.5 5.16421 10.5 4.75C10.5 4.33579 10.1642 4 9.75 4H4.75Z" fill="#1F1F1F"/>
<path fill-rule="evenodd" clip-rule="evenodd" d="M8.69358 3.16226e-07H10.8064C12.6442 -1.53615e-05 14.0998 -2.77758e-05 15.239 0.153135C16.4114 0.310763 17.3604 0.642881 18.1088 1.39124C18.8571 2.13961 19.1892 3.08856 19.3469 4.26098C19.5 5.40018 19.5 6.8558 19.5 8.69354V12.8064C19.5 14.6442 19.5 16.0998 19.3469 17.239C19.1892 18.4114 18.8571 19.3604 18.1088 20.1088C17.3604 20.8571 16.4114 21.1892 15.239 21.3469C14.0998 21.5 12.6442 21.5 10.8065 21.5H8.69359C6.85585 21.5 5.40018 21.5 4.26098 21.3469C3.08856 21.1892 2.13961 20.8571 1.39124 20.1088C0.642881 19.3604 0.310763 18.4114 0.153135 17.239C-2.77907e-05 16.0998 -1.53615e-05 14.6442 3.16226e-07 12.8064V8.69358C-1.53615e-05 6.85583 -2.77758e-05 5.40019 0.153135 4.26098C0.310763 3.08856 0.642881 2.13961 1.39124 1.39124C2.13961 0.642881 3.08856 0.310763 4.26098 0.153135C5.40019 -2.77907e-05 6.85583 -1.53615e-05 8.69358 3.16226e-07ZM4.46085 1.63976C3.45476 1.77502 2.87511 2.02869 2.4519 2.4519C2.02869 2.87511 1.77502 3.45476 1.63976 4.46085C1.50159 5.48851 1.5 6.84318 1.5 8.75V12.75C1.5 14.6568 1.50159 16.0115 1.63976 17.0392C1.77502 18.0452 2.02869 18.6249 2.4519 19.0481C2.87511 19.4713 3.45476 19.725 4.46085 19.8602C5.48851 19.9984 6.84318 20 8.75 20H10.75C12.6568 20 14.0115 19.9984 15.0392 19.8602C16.0452 19.725 16.6249 19.4713 17.0481 19.0481C17.4713 18.6249 17.725 18.0452 17.8602 17.0392C17.9984 16.0115 18 14.6568 18 12.75V8.75C18 6.84318 17.9984 5.48851 17.8602 4.46085C17.725 3.45476 17.4713 2.87511 17.0481 2.4519C16.6249 2.02869 16.0452 1.77502 15.0392 1.63976C14.0115 1.50159 12.6568 1.5 10.75 1.5H8.75C6.84318 1.5 5.48851 1.50159 4.46085 1.63976Z" fill="#1F1F1F"/>
</svg>
