<svg width="23" height="22" viewBox="0 0 23 22" fill="none" xmlns="http://www.w3.org/2000/svg">
<path fill-rule="evenodd" clip-rule="evenodd" d="M11.5403 2C6.43165 2 2.29028 6.14137 2.29028 11.25C2.29028 12.7311 2.63781 14.1288 3.25508 15.3681C3.50283 15.8655 3.59823 16.4603 3.44192 17.0445L2.84631 19.2705C2.73692 19.6793 3.11094 20.0534 3.51978 19.944L5.74581 19.3484C6.33001 19.1921 6.92479 19.2875 7.42219 19.5352C8.66149 20.1525 10.0592 20.5 11.5403 20.5C16.6489 20.5 20.7903 16.3586 20.7903 11.25C20.7903 6.14137 16.6489 2 11.5403 2ZM0.790283 11.25C0.790283 5.31294 5.60322 0.5 11.5403 0.5C17.4773 0.5 22.2903 5.31294 22.2903 11.25C22.2903 17.1871 17.4773 22 11.5403 22C9.82198 22 8.19581 21.5963 6.75343 20.8779C6.53819 20.7707 6.31842 20.7479 6.13352 20.7974L3.90748 21.393C2.38365 21.8007 0.989557 20.4066 1.39728 18.8828L1.99289 16.6568C2.04236 16.4719 2.01962 16.2521 1.91241 16.0369C1.19399 14.5945 0.790283 12.9683 0.790283 11.25ZM11.5403 6.5C11.9545 6.5 12.2903 6.83579 12.2903 7.25V15.25C12.2903 15.6642 11.9545 16 11.5403 16C11.1261 16 10.7903 15.6642 10.7903 15.25V7.25C10.7903 6.83579 11.1261 6.5 11.5403 6.5ZM7.54028 8.5C7.9545 8.5 8.29028 8.83579 8.29028 9.25V13.25C8.29028 13.6642 7.9545 14 7.54028 14C7.12607 14 6.79028 13.6642 6.79028 13.25V9.25C6.79028 8.83579 7.12607 8.5 7.54028 8.5ZM15.5403 8.5C15.9545 8.5 16.2903 8.83579 16.2903 9.25V13.25C16.2903 13.6642 15.9545 14 15.5403 14C15.1261 14 14.7903 13.6642 14.7903 13.25V9.25C14.7903 8.83579 15.1261 8.5 15.5403 8.5Z" fill="#1F1F1F"/>
</svg>
