<svg width="21" height="22" viewBox="0 0 21 22" fill="none" xmlns="http://www.w3.org/2000/svg">
<path fill-rule="evenodd" clip-rule="evenodd" d="M13.2374 5.20305e-07H7.0529C5.48363 -2.05765e-05 4.22534 -3.74913e-05 3.25079 0.13767C2.24304 0.28007 1.40481 0.585752 0.787202 1.30292C0.16959 2.02008 -0.00836732 2.89438 0.000298717 3.9121C0.00867925 4.8963 0.19535 6.14066 0.428159 7.69256L1.64439 15.8008C1.82089 16.9775 1.9638 17.9304 2.17351 18.6762C2.39185 19.4527 2.70547 20.0953 3.28164 20.5915C3.85781 21.0877 4.53987 21.3025 5.34015 21.4033C6.10879 21.5 7.07234 21.5 8.26227 21.5H12.0281C13.218 21.5 14.1815 21.5 14.9502 21.4033C15.7505 21.3025 16.4325 21.0877 17.0087 20.5915C17.5849 20.0953 17.8985 19.4527 18.1168 18.6762C18.3265 17.9305 18.4694 16.9776 18.6459 15.8009L19.8622 7.69253C20.095 6.14065 20.2817 4.89629 20.29 3.9121C20.2987 2.89438 20.1207 2.02008 19.5031 1.30292C18.8855 0.585752 18.0473 0.28007 17.0395 0.13767C16.065 -3.74913e-05 14.8067 -2.05765e-05 13.2374 5.20305e-07ZM1.92381 2.28175C2.20384 1.95658 2.62429 1.7411 3.46066 1.62292C4.31797 1.50177 5.46981 1.5 7.11229 1.5H13.178C14.8205 1.5 15.9724 1.50177 16.8297 1.62292C17.666 1.7411 18.0865 1.95658 18.3665 2.28175C18.6465 2.60692 18.7973 3.05468 18.7901 3.89933C18.7898 3.93248 18.7893 3.96604 18.7885 4H18.6455C18.6453 4 18.6457 4 18.6455 4H5.14547C5.14527 4 5.14567 4 5.14547 4H1.5018C1.50105 3.96603 1.50053 3.93248 1.50024 3.89933C1.49305 3.05468 1.64378 2.60692 1.92381 2.28175ZM3.33451 5.5H1.63048C1.68189 5.90852 1.74663 6.36096 1.82133 6.8655L1.89517 6.93934L3.33451 5.5ZM2.19515 9.36064L2.81362 13.4838L4.52101 11.6865L2.19515 9.36064ZM3.30161 16.7093C3.31777 16.8094 3.33374 16.9063 3.34965 17H3.54389L3.30161 16.7093ZM5.14029 18.5C5.14381 18.5 5.14734 18.5 5.15086 18.5H12.1423C12.1441 18.5 12.1459 18.5 12.1477 18.5H16.6028C16.444 18.9787 16.2627 19.2544 16.0299 19.4549C15.7621 19.6855 15.406 19.8341 14.7628 19.915C14.0988 19.9986 13.2299 20 11.978 20H8.31229C7.0604 20 6.19153 19.9986 5.52749 19.915C4.88436 19.8341 4.52823 19.6855 4.26048 19.4549C4.02768 19.2544 3.84629 18.9787 3.68758 18.5H5.14029ZM13.8582 17H16.3345L15.0468 15.7123L13.8582 17ZM17.1458 15.6899C17.1537 15.6369 17.1618 15.5832 17.17 15.5288L17.549 13.0015L16.065 14.6092L17.1458 15.6899ZM18.0011 9.98814L18.37 7.52879C18.4648 6.89673 18.5483 6.3381 18.6154 5.84045L16.305 8.15079L18.0011 9.98814ZM16.8345 5.5H13.8582L15.2868 7.0477L16.8345 5.5ZM10.3982 5.5H6.95583L8.72114 7.26531L10.3982 5.5ZM9.83451 17H7.45583L8.64517 15.8107L9.83451 17ZM5.55448 10.5986L2.95583 8L5.14517 5.81066L7.68768 8.35317L5.55448 10.5986ZM6.61549 11.6597L8.74869 9.41418L10.8345 11.5L8.64517 13.6893L6.61549 11.6597ZM9.70583 14.75L11.8952 12.5607L13.9853 14.6508L11.8835 16.9277L9.70583 14.75ZM12.9558 11.5L15.0035 13.5477L17.1245 11.25L15.2435 9.2123L12.9558 11.5ZM11.8952 10.4393L14.2253 8.10921L12.1373 5.84721L9.78215 8.32632L11.8952 10.4393ZM5.58202 12.7475L7.58451 14.75L5.42284 16.9117L3.64865 14.7826L5.58202 12.7475Z" fill="#1C274C"/>
</svg>
