<svg width="26" height="17" viewBox="0 0 26 17" fill="none" xmlns="http://www.w3.org/2000/svg">
<path d="M9.84229 14.304L1.00018 14.304" stroke="#1F1F1F" stroke-width="1.5" stroke-linecap="round"/>
<path d="M8.5791 7.98804L1.00015 7.98804" stroke="#1F1F1F" stroke-width="1.5" stroke-linecap="round"/>
<path d="M18.0398 14.6934L18.4848 14.0896H18.4848L18.0398 14.6934ZM19.3156 6.85916L18.7797 7.38387C18.9207 7.52796 19.1139 7.60916 19.3156 7.60916C19.5172 7.60916 19.7104 7.52796 19.8515 7.38387L19.3156 6.85916ZM20.5913 14.6934L21.0362 15.2971H21.0362L20.5913 14.6934ZM19.3156 15.3276L19.3156 14.5776H19.3156L19.3156 15.3276ZM18.4848 14.0896C17.6667 13.4867 16.6131 12.6264 15.7714 11.6652C14.9065 10.6773 14.3813 9.7133 14.3813 8.89109H12.8813C12.8813 10.2827 13.7225 11.6022 14.6429 12.6533C15.5865 13.731 16.7371 14.665 17.5949 15.2971L18.4848 14.0896ZM14.3813 8.89109C14.3813 7.4311 15.0387 6.60591 15.777 6.32987C16.5236 6.05069 17.6442 6.22421 18.7797 7.38387L19.8515 6.33446C18.4291 4.8818 16.7076 4.38044 15.2516 4.92488C13.7872 5.47246 12.8813 6.9694 12.8813 8.89109H14.3813ZM21.0362 15.2971C21.894 14.665 23.0446 13.731 23.9883 12.6533C24.9086 11.6022 25.7498 10.2827 25.7498 8.89108H24.2498C24.2498 9.71331 23.7246 10.6774 22.8597 11.6652C22.0181 12.6264 20.9645 13.4867 20.1463 14.0896L21.0362 15.2971ZM25.7498 8.89108C25.7498 6.96939 24.8439 5.47245 23.3795 4.92487C21.9235 4.38044 20.202 4.8818 18.7797 6.33446L19.8515 7.38387C20.9869 6.22421 22.1075 6.05069 22.8542 6.32987C23.5924 6.60591 24.2498 7.43109 24.2498 8.89108H25.7498ZM17.5949 15.2971C18.1061 15.6739 18.6042 16.0776 19.3156 16.0776L19.3156 14.5776C19.2575 14.5776 19.204 14.5689 19.0941 14.5094C18.9552 14.4342 18.7875 14.3127 18.4848 14.0896L17.5949 15.2971ZM20.1463 14.0896C19.8436 14.3127 19.676 14.4343 19.537 14.5094C19.4272 14.5689 19.3737 14.5776 19.3156 14.5776L19.3156 16.0776C20.0269 16.0776 20.525 15.6739 21.0362 15.2971L20.1463 14.0896Z" fill="#1F1F1F"/>
<path d="M22.4736 1.67236L9.21048 1.67236M0.999949 1.67236L3.84205 1.67236" stroke="#1F1F1F" stroke-width="1.5" stroke-linecap="round"/>
</svg>
