<svg width="24" height="15" viewBox="0 0 24 15" fill="none" xmlns="http://www.w3.org/2000/svg">
<path fill-rule="evenodd" clip-rule="evenodd" d="M0 1.38734C0 0.883996 0.408044 0.475952 0.911392 0.475952H21.5696C22.073 0.475952 22.481 0.883996 22.481 1.38734C22.481 1.89069 22.073 2.29874 21.5696 2.29874H0.911392C0.408044 2.29874 0 1.89069 0 1.38734ZM0 7.46329C0 6.95995 0.408044 6.5519 0.911392 6.5519H8.20253C8.70588 6.5519 9.11392 6.95995 9.11392 7.46329C9.11392 7.96664 8.70588 8.37469 8.20253 8.37469H0.911392C0.408044 8.37469 0 7.96664 0 7.46329ZM0 13.5392C0 13.0359 0.408044 12.6279 0.911392 12.6279H9.41772C9.92107 12.6279 10.3291 13.0359 10.3291 13.5392C10.3291 14.0426 9.92107 14.4506 9.41772 14.4506H0.911392C0.408044 14.4506 0 14.0426 0 13.5392Z" fill="#FFA400"/>
<path d="M13.0633 8.33186C13.0633 10.4616 15.6921 12.7256 17.3044 13.9138C17.8563 14.3206 18.1322 14.5239 18.5316 14.5239C18.9311 14.5239 19.207 14.3206 19.7589 13.9138C21.3712 12.7256 24 10.4616 24 8.33184C24 5.07859 20.9923 3.86397 18.5316 6.37709C16.071 3.86397 13.0633 5.07859 13.0633 8.33186Z" fill="#FFA400"/>
</svg>
